<?xml version="1.0" encoding="UTF-8"?>
<svg id="Layer_1" xmlns="http://www.w3.org/2000/svg" version="1.1" viewBox="0 0 539 549.6">
  <!-- Generator: Adobe Illustrator 29.7.1, SVG Export Plug-In . SVG Version: 2.1.1 Build 8)  -->
  <defs>
    <style>
      .st0 {
        fill: #0b2c57;
      }

      .st1 {
        fill: #f2890b;
      }

      .st2 {
        fill: #1d355f;
      }

      .st3 {
        fill: #0c3b73;
      }

      .st4 {
        fill: #fb8d06;
      }

      .st5 {
        fill: #0f3d73;
      }

      .st6 {
        fill: #123f76;
      }

      .st7 {
        fill: #f98b06;
      }

      .st8 {
        fill: #fff;
      }

      .st9 {
        fill: #103d72;
      }

      .st10 {
        fill: #0b3b72;
      }

      .st11 {
        fill: #103d73;
      }

      .st12 {
        fill: #223b64;
      }

      .st13 {
        fill: #f38809;
      }

      .st14 {
        fill: #15a4c0;
      }

      .st15 {
        fill: #fffefd;
      }

      .st16 {
        fill: #fefeff;
      }

      .st17 {
        fill: #03aebf;
      }

      .st18 {
        fill: #f48b0a;
      }

      .st19 {
        fill: #f78906;
      }

      .st20 {
        fill: #f6feff;
      }

      .st21 {
        fill: #0a264d;
      }

      .st22 {
        fill: #fa8e08;
      }

      .st23 {
        fill: #fa8b05;
      }
    </style>
  </defs>
  <path class="st8" d="M0,184.39V0h539v480.89H0V184.39Z"/>
  <path class="st17" d="M107.9,135.88c1.58-16.79,7.07-31.71,14.42-46.25,8.68-17.18,20.3-31.91,34.56-44.63,14.63-13.06,31.24-22.82,49.86-29.26,18.99-6.56,38.5-10.51,58.5-9.47,25.03,1.31,48.83,7.58,71.09,19.88,14.04,7.76,26.5,17.48,37.08,28.97,20.13,21.87,33.45,47.48,38.48,77.31,4.21,24.98,3.2,49.52-3.77,73.66-4.21,14.57-10.73,28.37-19.64,40.82-2.5,3.49-3.07,5.84.58,9.22,11.17,10.34,21.86,21.21,32.88,31.72,8.95,8.53,10.01,18.81,2.49,26.76-7.44,7.86-20.01,7.86-28.26-.35-10.91-10.86-21.68-21.86-32.23-33.07-2.58-2.74-3.82-2.52-6.54-.3-16.73,13.69-35.28,23.72-56.35,29.54-27.48,7.59-54.6,8.27-82.07.23-37.76-11.05-67.38-32.76-88.74-65.77-10.82-16.73-17.76-35-21.84-54.4-.34-1.59-.2-3.29-.27-5.4-2.61-16.53-2.03-32.61-.23-49.21Z"/>
  <path class="st5" d="M100.47,387.17c-1.45-6.35-1.21-11.39-2.99-17.73-4,5.69-4.83,12.37-7,18.41-4.51,12.53-8.13,25.37-12.46,37.97-1.92,5.6-6.69,7.75-12.39,7.67-5.58-.07-10.7-.86-12.91-7.31-5.37-15.73-10.99-31.38-16.46-47.08-1.14-3.28-1.94-6.71-4.51-10.11-3.13,8.56-1.89,16.88-2.94,24.92-1.7,13.04-2.37,26.22-3.58,39.33-.39,4.23-2.05,7.14-7.18,6.91-12.26-.55-12.32,3.15-11.04-12.47,1.19-14.58,3.34-29.06,3.99-43.71.46-10.56,2.44-21.05,3.75-31.57.09-.73.33-1.43.4-2.16.4-4.42-1.29-10,3.68-12.41,5.17-2.51,11.29-1.74,16.78-.81,6.34,1.08,6.53,7.71,8.28,12.38,5.42,14.52,10.39,29.21,15.5,43.84,1.74,4.99,3.38,10.02,5.31,15.76,4.04-6.05,5.92-12.29,7.74-18.28,4.9-16.2,11.74-31.74,15.9-48.17.68-2.67,2.76-5.18,5.63-5.46,5.28-.52,10.69-.88,15.94-.31,3.38.37,4.37,3.8,4.73,7.15,2.05,19.07,4.26,38.13,6.32,57.2,1.24,11.45,2.24,22.92,3.49,34.37.23,2.11-.93,3.66-2.26,3.91-4.98.94-10.12,1.6-14.99-.38-1.54-.62-2.39-2.09-2.69-4.22-1.22-8.72-2.26-17.43-2.18-26.72-1.19-7.36-1.22-13.87-1.86-20.92Z"/>
  <path class="st4" d="M429.84,422.92c2.11-8.04.84-16.02,1.23-24.86-4.44,0-8.42-.05-12.39.01-3.86.06-5.79-1.41-5.32-5.59.31-2.7.06-5.46.06-9.16,8.01,0,15.65-.1,23.28.02,12.55.2,13.21-2.79,13.09,13.08-.08,10.46-.13,20.93.01,31.39.04,3.25-.94,5.56-3.74,7.26-17.2,10.42-49.75,8.12-65.03-5.02-7.57-6.51-12.2-14.92-14.5-24.82-3.75-16.09-2.25-31.17,6.1-45.65,11.36-19.7,38.27-26.58,57.63-22.42,5.51,1.18,10.95,2.56,16.09,5.02,3.11,1.49,4.28,3.07,1.64,6.06-1.44,1.63-2.54,3.55-3.79,5.34-1.96,2.79-3.75,4-7.62,2.12-15.08-7.33-38.11-1.06-46.19,12.42-7.47,12.45-6.72,39.64,4.73,48.94,8.95,7.27,18.8,7.87,29.35,6.71,1.62-.19,3.24-.51,5.37-.85Z"/>
  <path class="st5" d="M136.81,468.39c-6.01-2.64-2.03-7.12-2.29-10.48-.21-2.71,2.47-4.2,5.8-4.19,9.45.02,16.17-5.15,18.34-13.54.25-.98.94-1.62.16-2.92-8.13-13.64-12.38-29-19.13-43.27-3.3-6.98-5.83-14.33-9.05-21.35-.85-1.85-.96-3.39-.51-5.85,5.54,0,11.3-.7,16.79.2,5.33.88,5.73,6.59,7.04,10.72,4.22,13.25,8.34,26.53,13.33,39.52.25.65.83,1.17,1.69,2.35,2.14-6.56,4.1-12.58,6.06-18.61,3.29-10.14,6.52-20.29,9.92-30.39.86-2.54,2.62-4.07,5.77-3.87,4.53.28,9.1.07,13.95.07-.69,7.3-3.64,13.35-5.85,19.48-6.49,17.95-13.52,35.7-20.54,53.45-2.48,6.27-3.71,13.12-8.08,18.56-3.73,4.65-7.93,8.69-14.47,10.01-6.39,2-12.44,1.39-18.93.11Z"/>
  <path class="st22" d="M506.99,440.64c-16.38,3.93-33.1-1.51-40.99-15.76-7.15-12.92-7.92-38.35,5.55-50.4,10.21-9.13,22.18-11.67,35.45-8.78,22.06,4.79,29.3,27.43,25.27,46.76-2.94,14.13-10.1,24.39-25.28,28.18Z"/>
  <path class="st11" d="M216.47,371.9c6.24-5.67,13.79-6.91,21.17-6.94,7.22-.03,14.5,1.34,21.43,3.95,2.49.94,3.32,2.11,2.13,4.45-.75,1.48-.82,3.24-1.48,4.6-1.63,3.38-3.02,6.6-8.56,4.06-5.33-2.44-11.52-3.79-17.67-1.91-2.27.69-4.43,1.39-4.83,4.42-.4,3.03,1.02,4.91,3.24,6.38,4.71,3.12,10.04,5.19,15.39,6.54,8.41,2.12,15.39,10.22,15.99,20.59.55,9.34-5.23,17.69-14.86,21.04-13.99,4.87-27.22,2.11-39.69-3.92-1.26-2.27.15-3.67.47-5.21,1.73-8.4,3.22-9.01,11.22-6,3.89,1.46,8.04,2.41,12.16,3.07,5.23.85,11.07-2.72,11.83-6.74.66-3.49-2.9-7.7-8.13-9.41-3.62-1.18-7.32-2.14-10.96-3.3-16.64-5.29-19.36-25.09-8.85-35.67Z"/>
  <path class="st3" d="M298.24,419.17c2.3,6.31,4.41,7.52,10.48,6.4,6.03-1.11,10.41,3.35,9.83,9.65-.28,3.05-3.09,3.45-4.57,3.81-7.73,1.93-15.41,4.32-23.59.81-6.1-2.61-10.5-7.34-10.55-13.85-.09-12.85-.08-25.69-.11-38.54-.01-1.97,0-3.94,0-5.81-4.9-1.67-12.64,2.5-12.14-7.23.34-6.53.53-6.85,11.98-8.06v-21.02c4.67-1.32,8.72-2.83,13.15-2.2,3.88.55,6.32,1.89,5.95,6.6-.42,5.44-.1,10.95-.1,17.06,3.71,0,7.14-.01,10.57,0,5.45.02,6.83,1.94,7.16,8.23.29,5.57-2.72,6.4-7.2,6.12-3.11-.19-6.25-.03-9.88-.02-2.06,4.99-1.15,15.12-1.15,15.12-.17,7.49.17,22.93.17,22.93Z"/>
  <path class="st6" d="M329.07,372.8c-.33-4.23,1.26-6.15,5.2-6.05,14.67.4,13.32-2.67,13.35,12.84.03,17.58.06,35.16.06,52.75,0,6.35-.87,7.32-7.31,7.11-3.2-.11-6.61,1.12-9.71-1.49-1.27-3.21-1.14-6.16-1.17-9.09-.14-18.51.31-37.04-.42-56.07Z"/>
  <path class="st9" d="M345.33,335.51c5.35,6.17,5.17,12.04-.14,16.26-5.13,4.08-11.08,3.22-15.07-2.39-2.78-3.91-2.82-8.16-.04-12.05,3.07-4.32,7.73-5.36,12.45-3.22.82.39,1.64.77,2.8,1.4Z"/>
  <path class="st0" d="M328.83,372.82c2.79.5,1.71,2.86,1.72,4.66.06,19.67.03,39.34,0,59.54-2.43-.87-1.79-3.26-1.8-5.36-.02-19.44.01-38.88.08-58.84Z"/>
  <path class="st12" d="M136.65,468.49c5.74-.44,11.73.63,18.2-.28-5.55,3.56-11.72,2.73-18.2.28Z"/>
  <path class="st10" d="M342.57,252.02c-13.07,11.06-27.11,19.58-42.8,25.31-7.63,2.78-15.76,6.06-23.24,7.18-1.84.28-3.75.26-5.71.18-7.67-.31-17.5.08-26.47-.69-13.55-3.19-26.71-5.73-38.84-12.17-18.12-9.61-33.36-22.35-45.49-39.84-.77-20.5-.25-40.12-.37-60.23.11-3.24,1.55-5.34,3.39-7.21,6.18-6.28,12.2-12.72,18.69-18.68,4.66-4.28,7.18-4.28,11.84.02,6.33,5.84,12.42,11.94,18.74,17.8.1.09.34.04.79.07,1.14-1.73.59-3.79.59-5.69.06-15.04.1-30.09,0-45.13-.04-4.5,1.36-8.03,4.49-11.34,10.2-10.81,21.19-20.85,31.06-31.98,1.21-1.37,2.56-2.63,4-3.78,5.5-4.37,8.48-4.54,13.57.19,12.64,11.76,24.15,24.62,36.07,37.08,3.2,3.35,3.25,7.6,3.25,11.87-.02,33.02-.01,66.04-.01,99.07,0,2.2-.2,4.43.35,6.58.59,2.34,1.62,4.25,4.95,2.63,1.98-2.14,1.56-4.41,1.56-6.55.04-13.82.01-27.63.02-41.97.65-5.21,3.89-6.88,8.07-7.25,4.38-.39,8.79-.38,13.17-.04,6.89.54,9.34,3.1,9.55,10.15.25,8.41.07,16.83.08,25.24.01,13.72.01,27.43,0,41.15,0,2.57.16,5.16-1.29,8.03Z"/>
  <path class="st16" d="M342.62,252.31c-.36-23.76-.45-47.72-.5-71.69-.03-11.26-.19-11.45-11.69-11.43-3.3,0-6.61-.2-9.89.07-2.56.22-5.74-.04-6.14,4.25-.96,15.18-.14,29.97-.46,44.75-.05,2.13.69,4.4-1.23,6.67-5.16,2.05-7.46.85-8.02-3.76-.17-1.45-.07-2.93-.07-4.4-.01-32.48-.44-64.98.26-97.45.2-9.25-2.67-15.81-8.89-21.92-9.91-9.74-19.54-19.75-29.3-29.63-5.21-5.27-8.1-5.34-13.16-.17-12.1,12.34-24.1,24.78-36.25,37.07-2.09,2.12-2.13,4.52-2.13,7.07-.03,16.7,0,33.4-.06,50.1,0,1.91.54,3.93-1.25,7.26-7.29-7.67-14.09-14.99-21.09-22.12-4.6-4.69-5.65-4.58-10.14.07-7.15,7.39-14.94,14.16-21.47,22.55-1.15,4.89-.45,9.47-.49,14.01-.14,15.74.03,31.48-.29,47.72-.2.5-.42.58-.42.71-8.72-9.18-13.5-20.59-17.53-32.42-4.46-13.06-7.04-26.46-6.56-40.27.89-25.44,8.26-48.67,23.16-69.66,13.79-19.42,31.9-33.15,53.47-42.31,12.39-5.26,25.67-7.8,39.26-8.39,13.8-.59,27.71-.26,40.84,3.61,21.27,6.28,40.52,16.55,56.11,33.03,10.14,10.72,18.62,22.39,24.42,35.92,6.44,15,9.91,30.84,10.65,47.01.59,13.08-2.2,25.9-5.86,38.65-4.6,15.99-12.75,29.74-22.95,42.49-3.59,4.47-7.33,8.96-12.33,12.61Z"/>
  <path class="st14" d="M268.18,285.81c-7.63-.04-15.25-.08-22.88-.19"/>
  <path class="st15" d="M480.67,408.16c-.09-5.97-.15-11.37,1.78-16.71,2.8-7.76,7.7-10.83,16.82-10.81,7.62.02,12.85,5.97,14.25,12.38,1.7,7.77,1.84,15.63-1.52,23.42-2.87,6.67-7.68,8.88-14.34,9.17-7.11.3-11.82-3.07-14.72-9.15-1.15-2.42-1.53-5.2-2.27-8.3Z"/>
  <path class="st20" d="M299.32,487.58c4.72-4.08,9.73-3.73,14.57-1.68,4.31,1.82,5.09,5.76,4.53,10.45h-21.49c-1.98-3.55.9-5.78,2.39-8.77Z"/>
  <path class="st13" d="M277.54,168.1c5.01,2.24,6.4,5.88,6.11,10.81-.34,5.65.02,11.33-.08,16.99-.09,5.57-2.64,8.12-7.97,8.26-5.19.14-7.81-2.03-8.03-7.48-.27-6.93-.27-13.9.03-20.83.26-5.83,2.89-7.74,9.94-7.75Z"/>
  <path class="st1" d="M283.6,141.14c-.29,7.03-2.57,9.38-8.41,9.21-5.41-.16-7.63-2.71-7.68-8.95-.06-6.21-.1-12.43-.06-18.65.04-5.41,2.5-7.83,7.65-7.74,5.86.1,8.41,2.29,8.48,7.52.08,6.03.02,12.07.02,18.61Z"/>
  <path class="st19" d="M251.01,200.94c-3.58,4.49-7.88,3.62-11.8,2.09-3.1-1.21-3.03-4.59-3.03-7.5,0-6.4-.1-12.81.07-19.2.14-5.42,3.04-8.28,8.02-8.34,4.92-.06,7.73,2.83,7.58,8.51-.21,8.01.66,16.07-.84,24.44Z"/>
  <path class="st23" d="M237.97,116.83c2.1-.78,3.81-1.52,5.58-1.74,4.99-.6,8.25,2.28,8.31,7.33.08,7.12-.02,14.25,0,21.37.02,3.95-2.18,5.99-5.81,6.53-4.33.64-9.19-.35-9.44-5-.45-13.75-.47-26.18,1.35-28.49Z"/>
  <path class="st7" d="M236.2,239.53c0-4.19-.11-7.86.04-11.51.21-4.97,2.95-7.29,8.16-7.32,4.89-.03,7.45,2.28,7.46,7.23,0,6.76-.09,13.53,0,20.29.06,4.6-2.93,6.25-6.63,6.28-3.66.04-8.15.23-8.76-5.13-.35-3.07-.2-6.2-.27-9.84Z"/>
  <path class="st18" d="M195.5,189.07c0,4.73-.13,8.93,0,13.13.17,5.29-2.64,7.67-7.52,8.13-4.54.43-8.35-2.28-8.66-6.95-.41-6-.43-12.07.06-18.06.42-5.11,3.61-6.78,9.44-6.43,6.5.4,6.86,4.77,6.67,10.18Z"/>
  <path class="st21" d="M160.47,231.5c-.27-20.11-.22-40.54.23-61.24.3,20.12.19,40.51-.23,61.24Z"/>
  <path class="st2" d="M312.72,225.15c.97-2.03.71-4.41.72-6.76.08-14.57.17-29.15.61-44.09.4,15.4.45,31.18.47,46.95,0,1.39.43,3.02-1.8,3.9Z"/>
</svg>